<svg xmlns="http://www.w3.org/2000/svg" viewBox="100 110 640 220">
  <rect width="840" height="440" rx="0" fill="#0A0A0A"/>
  <g>
    <path d="M132,299.3v-1.1l7.1-28.4c2.6.7,4.5,2.3,6.7,3.4,4.3,2,8.7,3.1,13.3,4.5,8.2,2.6,17.4,2.8,25.8.6s2.8-1.6,4.3-2.1c3-1,5.3-3.1,7.3-5.7,6.5-8.7,5.3-21.6-2.8-29s-13.9-7.3-22-7.3h-14.7c0,0,0-28.1,0-28.1,6.9-.1,13.3.1,19.9-.5s4.6-1.3,6.9-2.1c6-2.1,10.8-6.6,12.2-12.3s-.2-13-5.2-17.2-6.2-2.9-9.6-3.9-9.1-1.1-13.2,0-11.6,2.3-16.7,5.2-4.8,2.6-7.4,3.9l-6.9-27.4c-.2-1,1.4-1.9,2-2.2l7.9-3.9c4.6-2.3,9.7-3,14.6-4.6,7.1-2.3,14.5-2.1,22-2.1s12.1,0,17.7,2.1,7.5,2.5,11,4.6c12.6,7.4,20,20.3,19.8,35.1s-2.8,18.6-9,25.8-6.1,5.6-11.3,9.2-4.9,1.5-7.1,3.4c4.4,1.6,8.9,2,12.3,4.6s4.2,2.5,6,4.2l3.5,3.4c16.5,16.1,15.3,54.5-14.2,71s-6.8,3-10.4,4.5c-7.8,3.2-23.4,4.2-31.9,3.5s-14.3-.9-20.9-3.6c-3.7-1.5-7.5-2.2-11-4.1s-3.8-2.5-5.8-3.3Z" fill="#e3101a"/>
    <path d="M353.2,281.3c-2.2,2.2-9.1,8.1-11.5,9s-3.1,1.9-4.7,2.8c-3.4,1.8-7,2.7-10.6,4.3-5.9,2.6-12.4,3-18.8,4.4s-3.7,1-5.9,1.2c-16.9,1.1-36.9,1.3-53.3-2.3v-157.4s14.3-2.2,14.3-2.2c12.3-1.9,40.3-2.6,52.5.3s11.8,1.7,17.1,4.4,6.4,2.5,9.3,4.3l4.9,3.1c30.5,19.4,33.8,65.6,24.3,97.6-3.4,11.7-9.3,22-17.6,30.6ZM339.3,201.8c-3-14.2-12.1-27.1-26.4-31.2-6.6-3.9-24.3-3.3-31.8-1.6v105.5c9.2,1,18.4,1,27.2-1.3s4.2-2.1,6.4-2.5c25.3-10.8,29.6-45.4,24.6-68.9Z" fill="#e3101a"/>
    <path d="M470.8,138.5c6.1,0,22.1,3.5,28.3,6.8l-6.8,28.9c-4.3-1.5-8.1-2.9-12.5-4-14.5-3.7-31.8-2-43.6,8.1s-11.8,14.3-14.2,23.5c-6.5,24.9-1.5,59.8,26.8,69.3l5.7,1.9c6.6,2.2,21.7.6,28.7-1l-8.5,31.6c-11.5.9-23.2,1.6-34.1-1.5-4.9-1.4-9.9-2.2-14.1-4.7s-5.6-2.5-8-4.2l-4.5-3.1c-11.8-8.3-19.4-20.7-23.8-34.7-6.4-20.5-6.3-42.6-.3-63.2s11.6-25.7,22.1-35.2,11-8.1,17.8-11.6,8.6-2.6,12.8-4.4,9.8-1.3,14.5-2.5h13.9Z" fill="#e3101a"/>
    <path d="M565.4,260.6h-41.2s-10,40.9-10,40.9h-33.7s43.8-160.9,43.8-160.9h42.4s44.7,160.9,44.7,160.9h-35c0,0-11-40.9-11-40.9ZM560.3,233l-9.3-35.7-6.8-29.7-6.1,29-9.2,36.5h31.3Z" fill="#e3101a"/>
    <polygon points="678.6 140.7 715.2 140.6 667.8 234.8 667.8 301.5 635.4 301.5 635.4 236.2 589.9 140.6 627.3 140.6 640.5 176 653.1 210.7 667.7 169.9 678.6 140.7" fill="#e3101a"/>
  </g>
</svg>