<?xml version="1.0" encoding="UTF-8"?>
<svg id="Ebene_1" xmlns="http://www.w3.org/2000/svg" version="1.1" viewBox="0 0 841.9 595.3">
  <!-- Generator: Adobe Illustrator 30.2.1, SVG Export Plug-In . SVG Version: 2.1.1 Build 1)  -->
  <defs>
    <style>
      .st0 {
        fill: #706f6f;
      }
    </style>
  </defs>
  <g id="sGenRR.tif">
    <g>
      <path class="st0" d="M269.6,294.6c4.6,0,7.9-4.2,7.9-8.3s-3.2-8.3-7.7-8.3h-79.8c0,0,0-19.1,0-19.1h63c4.9,0,8.8-3.4,8.9-8.3s-3.8-8.5-8.7-8.5h-44.3s0,6.2,0,6.2h-19s0-25.2,0-25.2h64.7c8.8,0,16.7,5.1,21.4,11.7s6.3,17.3,3,25.9c12.2,4.9,19.3,17.3,17.1,30.2s-12.5,22.6-25.5,22.6l-80.7.3v-25.3s19,0,19,0v6.2s60.7,0,60.7,0Z"/>
      <polygon class="st0" points="380.3 273.1 394.7 292.1 342.8 292.1 326.4 313.7 302.6 313.6 375.4 217.5 448.3 313.6 424.5 313.7 375.5 249.1 357.3 273.1 380.3 273.1"/>
      <path class="st0" d="M579.9,260.6c6.3-6.9,11.4-14.1,13.7-23.1,2.2-8.5.8-17.1-4-24.5-10.3-15.8-32.7-23.5-50.4-27.3s-22.5-3.5-33.9-4c-12.3-.5-24.2.2-36.6,1,7.1-2.3,14-3.4,21.2-4.7,13.2-2.4,26.3-3.7,39.7-4.2,21.9-.8,52.4,1.5,71.7,12.7s21.3,21.1,16.6,35.9c-1.1,3.6-2.7,6.8-4.7,9.9-6.9,10.6-17.4,20.1-27.5,27.6s-12.3,9-19.1,12.9c4.7-4.3,9.3-7.7,13.5-12.4Z"/>
      <polygon class="st0" points="543.8 242.1 430.2 242.1 430.2 223.1 543.7 223.1 543.8 242.1"/>
      <path class="st0" d="M625.9,221.6c2.1-6.5,3.4-12.5,3.2-18.9-.6-15.2-11.3-25.4-24.8-30.6-14.1-5.4-28.7-6.1-43.7-6.6-8.6-.3-16.9.4-25.7.2,16.5-3.6,32.8-5.6,49.4-6.9s9.1-.5,13.7-.5h3.2c10.9,0,26.5,1.3,35.8,7.2s9,9.7,8.8,17.4-4.7,17.7-9.2,24.8c-3.3,4.8-6.4,9.4-10.7,13.9Z"/>
      <polygon class="st0" points="496.5 313.6 477.5 313.7 477.5 252.8 496.5 252.8 496.5 313.6"/>
    </g>
  </g>
</svg>