<svg width="260" height="191" viewBox="0 0 260 191" fill="none" xmlns="http://www.w3.org/2000/svg"><path d="M93.6508 22.6741C103.306 22.3503 102.754 20.2136 101.226 18.7521C102.935 18.7432 107.514 24.8847 92.4462 25.3846C88.1567 25.5244 92.3673 26.6759 97.3937 27.5765C102.003 28.3953 107.382 28.9209 105.721 29.9494H88.7279C86.0021 29.9494 78.7451 23.1849 93.6508 22.6731V22.6741ZM115.485 20.2215V20.2047C116.57 20.2382 117.245 19.6428 117.239 19.0237C117.239 18.8948 117.149 18.9253 117.088 18.9115C117 19.0356 116.884 19.1368 116.748 19.2065C116.613 19.2761 116.463 19.3122 116.311 19.3116C116.158 19.311 116.008 19.2738 115.874 19.2031C115.739 19.1325 115.623 19.0304 115.536 18.9056C115.895 17.1114 117.744 14.1401 126.144 14.5259C127.828 12.0545 132.091 11.9069 134.919 12.1077C134.989 12.1136 135.045 12.1185 135.116 12.1274C135.45 12.15 135.76 12.1835 136.043 12.211C141.187 12.6332 140.182 11.4788 140.4 11.2268C141.79 11.6018 143.922 14.2483 145.766 17.2787C145.836 17.3988 145.883 17.4972 145.942 17.5976C148.649 22.0265 149.818 29.0213 149.467 32.9463C149.467 32.9981 149.453 33.0489 149.428 33.0938C149.402 33.1388 149.365 33.1764 149.321 33.2031C149.276 33.2298 149.226 33.2446 149.174 33.2462C149.122 33.2477 149.07 33.236 149.024 33.212C147.51 30.0987 145.659 27.1595 143.505 24.4467C143.538 24.863 143.584 25.2744 143.603 25.6907C145.854 30.0035 148.412 39.2866 148.412 42.3671C148.412 42.6555 148.229 43.0492 147.949 42.8336C146.837 40.256 144.016 36.701 142.502 34.8842C142.413 35.2444 142.326 35.6027 142.233 35.958C146.064 41.549 148.007 48.2132 147.78 54.9817C147.78 55.4482 147.553 55.4876 147.316 55.398C146.148 50.165 141.1 45.3217 139.719 44.0718C139.621 44.3936 139.522 44.7145 139.433 45.0274C146.757 54.0822 143.266 56.2021 148.181 63.1428C149.167 64.5315 149.151 66.5875 148.435 66.5875C145.218 62.7085 141.792 59.0067 138.172 55.4984C138.251 56.4075 138.462 57.3001 138.8 58.1479C131.795 58.827 130.935 45.4014 130.935 45.4014L130.669 45.0993C130.635 45.4516 129.978 46.74 130.879 50.603C125.102 49.3343 125.076 41.2451 125.782 39.6182C125.702 39.4952 125.572 39.4755 125.511 39.3919C124.984 40.5294 124.766 41.7852 124.878 43.0334C120.966 43.0059 120.044 39.2177 122.056 37.7453C123.037 37.0239 124.727 36.3674 125.895 35.6568C126.383 35.4056 126.848 35.1129 127.285 34.7818L127.378 34.7149C127.512 34.6116 127.63 34.5181 127.717 34.4492L127.843 34.3508L127.927 34.2809C128.839 35.0823 129.875 35.7308 130.995 36.2011C132.297 35.5914 133.36 34.5682 134.016 33.2918L134.176 32.1294C133.39 33.2918 132.286 34.2054 130.996 34.7622L130.943 34.7395L130.879 34.709L130.769 34.6647C130.733 34.648 130.696 34.6283 130.652 34.6086L130.515 34.5358C130.459 34.5102 130.408 34.4856 130.347 34.4521L130.193 34.3596C130.081 34.2956 129.966 34.2228 129.846 34.1411C129.782 34.0988 129.72 34.0604 129.656 34.0102C129.591 33.96 129.521 33.9118 129.458 33.8537C129.395 33.7957 129.332 33.7553 129.271 33.6972C129.21 33.6392 129.14 33.5801 129.074 33.5152C129.048 33.4876 129.02 33.465 128.995 33.4394H128.991C128.761 33.2119 128.559 32.9574 128.391 32.6815C127.264 33.649 125.945 33.4758 123.861 33.4443C123.67 33.4312 123.478 33.4292 123.286 33.4384C123.281 33.3793 123.278 33.4384 123.278 33.4384C122.308 33.5142 121.107 33.0103 121.107 35.5289C119.978 35.6489 118.888 34.8803 118.049 33.4965C117.674 32.8387 117.465 32.0995 117.441 31.3431C117.416 30.5866 117.577 29.8356 117.909 29.1551C117.909 29.1551 122.271 30.9779 124.84 29.3982C125.169 29.2324 125.459 28.9982 125.689 28.7113C125.919 28.4245 126.085 28.0916 126.176 27.7353C126.266 27.379 126.279 27.0074 126.214 26.6457C126.148 26.284 126.005 25.9406 125.795 25.6386C124.061 23.2351 118.194 25.6386 118.194 25.6386C117.454 25.5943 114.938 21.1112 115.476 20.2254L115.485 20.2215ZM123.148 16.4244C123.14 16.6114 123.241 16.6951 123.485 16.6114C124.284 16.2461 125.136 16.0102 126.009 15.9126C126.055 15.7247 126.167 15.5592 126.324 15.446C126.481 15.3327 126.673 15.279 126.867 15.2945C127.076 15.2739 127.284 15.3353 127.449 15.4658C127.613 15.5963 127.72 15.7855 127.747 15.9933C127.736 16.1226 127.69 16.2463 127.612 16.3506C127.535 16.455 127.43 16.5357 127.31 16.5838C127.452 16.6244 127.599 16.645 127.747 16.6449C127.935 16.6617 128.125 16.6392 128.304 16.5789C128.483 16.5185 128.647 16.4216 128.787 16.2944C128.926 16.1671 129.038 16.0123 129.114 15.8397C129.19 15.6672 129.23 15.4806 129.23 15.2921C129.23 15.1035 129.19 14.917 129.114 14.7444C129.038 14.5719 128.926 14.417 128.787 14.2898C128.647 14.1625 128.483 14.0656 128.304 14.0053C128.125 13.9449 127.935 13.9225 127.747 13.9393C127.54 13.938 127.335 13.9787 127.145 14.0589C126.955 14.1391 126.783 14.2571 126.64 14.4058L126.6 14.4284C125.373 14.9493 124.213 15.6176 123.147 16.4185L123.148 16.4244ZM116.413 28.8461C121.064 27.233 124.656 27.605 125.483 27.9711C125.577 27.94 125.661 27.8858 125.729 27.8136C125.796 27.7414 125.845 27.6534 125.869 27.5578C125.869 27.5578 121.636 24.3177 118.212 26.7163C117.56 27.1634 116.809 27.4444 116.023 27.5344C115.238 27.6245 114.442 27.521 113.706 27.233C113.73 27.5402 113.827 27.8374 113.989 28.0994C114.152 28.3614 114.375 28.5807 114.64 28.7387C114.906 28.8968 115.205 28.989 115.513 29.0077C115.822 29.0264 116.13 28.971 116.412 28.8461H116.413ZM99.937 17.6852C98.5026 12.3271 88.2564 16.3998 92.3022 10.5821C89.6069 9.63141 87.0597 13.6932 88.9874 15.4048C91.5731 17.6852 95.2855 14.0682 99.938 17.6852H99.937ZM178.924 50.604C178.881 50.3579 178.439 49.9839 178.304 50.5813C176.519 58.5308 164.598 59.4864 164.617 70.7576C163.395 66.5924 163.51 62.629 169.699 57.4019C178.699 49.8127 183.184 33.4187 179.954 28.6118C179.514 28.1365 179.271 28.4583 179.226 28.8884C177.923 42.6319 160.165 43.6299 160.491 59.7423C159.58 58.8703 156.873 51.1797 164.96 44.307C177.341 33.776 180.103 24.0668 179.838 13.9403C179.669 7.53012 176.571 1.02549 176.512 0.51666C176.454 0.0078244 176.042 -0.270706 175.681 0.379855C173.829 3.69171 170.748 7.38151 161.139 15.393C155.713 19.9292 148.965 27.2281 151.344 43.2834C151.442 43.9517 152.055 44.3316 152.215 43.5187C154.263 32.9217 172.421 25.8305 173.741 13.9452C176.868 22.0314 160.491 34.3665 155.501 41.3209C150.385 48.4485 147.863 55.2238 150.534 64.56C152.551 71.604 165.075 78.3035 162.478 83.5641C161.847 84.8278 158.353 87.7401 155.49 80.3831C153.122 74.2929 146.292 63.8632 139.22 59.1784C137.776 59.2749 136.33 59.0392 134.992 58.4894C133.056 57.4718 131.806 54.5792 131.182 51.6984C126.94 51.8687 125.102 47.6395 125.001 44.1259C124.471 44.0875 123.947 43.9861 123.44 43.8238C122.651 43.5788 121.923 43.1703 121.303 42.625C119.278 45.5101 117.824 48.7549 117.021 52.1846C114.365 54.1353 111.961 56.0023 111.961 56.0023C109.916 56.2907 105.464 55.276 101.527 53.5733C98.2717 52.1669 96.9606 50.3451 95.0408 49.291L95.0349 49.2822C94.8859 49.1897 94.7389 49.103 94.584 49.0253C93.6276 48.5385 92.527 48.4134 91.4853 48.6729C87.4701 50.0095 87.8006 52.8293 88.4428 54.5369C88.8916 53.4162 89.648 52.4444 90.625 51.7328C90.7316 51.6492 90.8628 51.8195 90.7286 52.0015C90.0193 52.9434 88.8542 55.1628 89.9157 56.4846C90.1781 56.8378 90.4947 57.1473 90.8539 57.4019C91.0439 56.3477 91.5109 55.3628 92.2075 54.5477C92.3249 54.4079 92.4482 54.528 92.3614 54.7376C92.0309 55.5122 91.5149 57.4098 92.5271 58.3014C94.2841 56.9846 95.5114 58.8014 95.8527 59.0888C96.1941 59.3762 96.7969 59.6419 96.8393 59.4825C97.0188 58.826 97.2398 58.4619 97.5141 58.4284C100.339 58.6392 103.046 59.6465 105.32 61.3328C107.558 63.2166 110.696 64.9941 113.227 64.8573C115.08 64.5367 116.893 64.0136 118.632 63.2973C121.098 67.7922 126.149 72.3254 135.412 76.3705C124.877 76.2278 120.31 76.3705 120.31 76.3705C116.281 76.3705 114.891 79.1401 116.345 81.2561C117.586 83.0671 122.333 88.431 122.835 90.6504C121.552 91.1759 119.382 89.7784 117.974 89.5412C116.254 89.17 114.458 89.426 112.911 90.2626C108.932 93.0046 110.37 95.2496 111.734 96.4257C111.841 95.2285 112.325 94.0957 113.115 93.1887C113.202 93.0765 113.411 93.166 113.328 93.3678C112.897 94.4504 112.432 96.7859 114.124 97.468C114.568 97.6668 115.038 97.8014 115.519 97.8676C115.34 96.8629 115.491 95.8274 115.949 94.9149C116.029 94.7526 116.212 94.8008 116.192 95.0134C116.102 95.9809 116.341 98.4738 118.947 97.9256C122.412 96.8548 124.354 95.9435 125.548 96.1226C127.24 96.3745 130.714 96.6393 129.927 92.1001C129.431 89.5545 129.968 86.9166 131.421 84.7658C132.692 92.4023 141.272 93.7575 144.379 96.721C144.882 98.863 145.177 101.049 145.259 103.247C143.286 103.097 140.437 101.433 138.241 101.215C136.966 101.101 135.684 101.346 134.542 101.923C130.398 104.402 131.681 106.73 132.97 107.994C133.155 106.808 133.71 105.709 134.556 104.855C134.649 104.749 134.852 104.85 134.76 105.052C134.256 106.1 133.639 108.406 135.287 109.198C135.718 109.421 136.178 109.585 136.654 109.684C136.536 108.67 136.752 107.646 137.271 106.766C137.358 106.606 137.542 106.667 137.507 106.88C137.356 107.839 137.434 110.343 140.072 109.961C143.599 109.113 146.406 108.273 147.586 108.529C149.263 108.89 152.716 109.377 152.215 104.8C152.045 103.514 152.198 102.207 152.66 100.994C153.122 99.7819 153.879 98.7031 154.863 97.8548C150.579 95.3254 149.903 90.5342 147.839 87.0009L150.217 86.4951C154.863 92.3403 164.448 91.3728 168.684 86.8385C176.005 79.0033 175.672 74.0173 175.672 68.5185C175.672 68.5185 175.338 67.803 174.949 68.4516C173.794 70.3826 168.659 72.6108 168.051 78.894C167.611 78.0722 167.129 75.5989 169.371 71.414C172.929 64.7726 181.248 63.9232 178.94 50.6069L178.924 50.604ZM88.7782 57.4964C88.9793 57.7504 89.1975 57.9905 89.4313 58.2148H85.5374C78.6839 51.847 78.0397 37.0888 78.0003 33.1559C77.997 33.0033 78.0244 32.8515 78.0808 32.7096C78.1372 32.5676 78.2216 32.4384 78.3289 32.3295C78.4362 32.2206 78.5643 32.1343 78.7056 32.0756C78.8469 32.0169 78.9985 31.987 79.1516 31.9877H109.218C109.371 31.988 109.522 32.0187 109.662 32.0778C109.803 32.137 109.93 32.2234 110.037 32.3322C110.144 32.4409 110.228 32.5698 110.284 32.7112C110.34 32.8526 110.368 33.0038 110.365 33.1559C110.359 33.5723 110.345 34.087 110.328 34.6765C110.311 35.2661 110.477 36.0298 111.466 35.9117C112.454 35.7936 116.38 34.7307 118.286 38.0169C120.133 41.2008 119.544 45.5274 115.061 48.1858C112.566 49.7067 110.316 51.5932 108.384 53.782C106.224 53.475 104.107 52.9178 102.077 52.1216C100.618 51.469 99.2624 50.6069 98.0537 49.5627C97.3563 48.9683 96.6101 48.4333 95.8231 47.9633L95.7787 47.9328C95.611 47.8344 95.4374 47.736 95.246 47.6307L95.176 47.6002C94.2463 47.1432 93.2163 46.9269 92.1808 46.9713C91.8018 46.993 91.4261 47.0547 91.0601 47.1553L90.993 47.175C90.1313 47.3998 89.3275 47.8052 88.6351 48.3642C87.9428 48.9232 87.3778 49.623 86.9778 50.417C86.6667 51.1604 86.511 51.9593 86.5201 52.7649C86.5293 53.5704 86.7031 54.3656 87.0311 55.1018C87.4968 55.9757 88.0793 56.7826 88.7625 57.5003L88.7782 57.4964ZM110.798 47.4033C111.877 46.9782 112.903 46.4304 113.856 45.7705C116.454 43.993 116.899 41.5719 115.792 39.6635C115.497 39.1716 115.065 38.7759 114.548 38.5248C114.032 38.2736 113.453 38.1779 112.883 38.2492C110.37 38.3585 109.894 43.0718 109.894 43.0718C109.894 43.0718 109.14 48.0588 110.796 47.4023" fill="url(#paint0_linear_12_38)"/><path d="M0 120.596H10.4453V143.605H32.1585V120.596H42.6038V171.518H32.1585V152.964H10.4453V171.518H0V120.596ZM53.1933 120.596H86.773V129.814H63.6395V142.93H84.0086V151.916H63.6395V162.307H87.812V171.518H53.1933V120.596ZM97.7328 120.6H108.178V171.519H97.7328V120.6ZM122.797 120.076H123.84L141.602 144.11C143.242 146.356 145.256 149.653 145.256 149.653C145.256 149.653 147.27 146.283 148.838 144.11L166.296 120.076H167.342L171.442 171.518H161.072L159.726 153.479C159.505 150.109 159.28 144.417 159.28 144.417C157.873 147.084 156.303 149.66 154.578 152.131L145.405 164.479H144.51L135.259 152.198C133.169 149.428 130.258 144.488 130.258 144.488C130.258 144.488 130.109 150.174 129.884 153.546L128.541 171.517H118.694L122.797 120.076ZM181.808 120.595H201.431C210.912 120.595 216.204 126.585 216.204 133.777C216.204 138.495 213.444 141.715 209.043 143.137C215.979 144.783 219.337 149.428 219.337 155.793C219.337 164.851 212.917 171.517 202.325 171.517H181.808V120.595ZM200.315 139.392C203.673 139.392 205.908 137.52 205.908 134.601C205.908 131.682 204.042 129.807 200.836 129.807H192.26V139.391L200.315 139.392ZM201.879 162.306C206.134 162.306 208.819 159.46 208.819 155.269C208.819 151.15 206.053 148.305 201.282 148.305H192.26V162.306H201.879ZM223.66 161.484L232.167 156.541C234.402 160.209 237.314 162.906 242.464 162.906C246.789 162.906 249.55 160.735 249.55 157.738C249.55 154.146 246.717 152.873 241.94 150.777L239.326 149.653C231.792 146.432 226.791 142.387 226.791 133.853C226.791 125.991 232.76 120 242.086 120C248.728 120 253.502 122.319 256.935 128.385L248.807 133.628C247.015 130.41 245.074 129.135 242.091 129.135C239.029 129.135 237.093 131.082 237.093 133.628C237.093 136.774 239.03 138.047 243.512 139.992L246.124 141.115C255.002 144.935 260 148.828 260 157.591C260 167.024 252.614 172.189 242.691 172.189C232.991 172.189 226.725 167.547 223.665 161.484H223.66ZM48.7667 182.191H48.9435L51.9449 186.254C52.2224 186.634 52.5622 187.189 52.5622 187.189C52.5622 187.189 52.9019 186.62 53.1676 186.254L56.1157 182.191H56.2925L56.9838 190.883H55.2357L55.0085 187.834C54.969 187.262 54.9325 186.303 54.9325 186.303C54.6948 186.753 54.431 187.188 54.1424 187.606L52.5908 189.688H52.4397L50.8773 187.613C50.5237 187.146 50.0328 186.31 50.0328 186.31C50.0328 186.31 50.0071 187.272 49.9686 187.841L49.7415 190.878H48.0743L48.7667 182.191ZM62.8899 182.202H63.039L66.96 190.88H65.1081L64.7042 189.906H61.2238L60.8198 190.88H59.1201L62.8899 182.202ZM64.0751 188.425L63.4578 186.933C63.205 186.326 62.9413 185.388 62.9413 185.388C62.7999 185.912 62.6314 186.427 62.4366 186.933L61.8193 188.425H64.0751ZM71.675 186.883C71.3109 186.512 70.9699 186.119 70.6537 185.706C70.723 186.226 70.7652 186.75 70.7802 187.274V190.88H69.1278V182.202H69.3046L73.6265 186.278C73.9863 186.649 74.3227 187.042 74.6339 187.455C74.6339 187.455 74.5213 186.48 74.5213 185.887V182.278H76.1737V190.956H75.9969L71.675 186.883ZM78.939 187.77V182.278H80.703V187.669C80.703 188.922 81.2472 189.402 82.4195 189.402C83.5918 189.402 84.1084 188.921 84.1084 187.669V182.278H85.8723V187.77C85.8723 189.95 84.372 190.996 82.4155 190.996C80.4353 190.996 78.9351 189.946 78.9351 187.77H78.939ZM88.6347 182.278H94.1576V183.835H90.3976V186.681H93.8139V188.266H90.3976V190.887H88.6347V182.278ZM99.1017 182.202H99.2508L103.172 190.88H101.32L100.916 189.906H97.4356L97.0316 190.88H95.3289L99.1017 182.202ZM100.281 188.425L99.6637 186.933C99.4108 186.326 99.1471 185.388 99.1471 185.388C99.0058 185.912 98.8373 186.427 98.6425 186.933L98.0222 188.425H100.281ZM107.724 185.351L109.995 182.279H112.001L109.126 186.175L112.352 190.882H110.224L107.94 187.504L107.109 188.503V190.882H105.34V182.278H107.107V185.251C107.093 185.733 107.055 186.214 106.992 186.692C107.191 186.222 107.436 185.774 107.724 185.352V185.351ZM116.233 183.834H113.788V182.278H120.444V183.835H117.998V190.887H116.233V183.834ZM122.713 187.77V182.278H124.477V187.669C124.477 188.922 125.021 189.402 126.194 189.402C127.366 189.402 127.883 188.921 127.883 187.669V182.278H129.647V187.77C129.647 189.95 128.147 190.996 126.191 190.996C124.21 190.996 122.71 189.946 122.71 187.77H122.713ZM138.738 190.88H136.696L135.285 188.7C135.118 188.724 134.949 188.737 134.78 188.736H134.175V190.875H132.41V182.278H134.78C137.175 182.278 138.611 183.43 138.611 185.529C138.651 186.092 138.513 186.653 138.216 187.132C137.919 187.611 137.479 187.984 136.959 188.197L138.738 190.88ZM134.73 187.198C136.166 187.198 136.797 186.742 136.797 185.529C136.797 184.316 136.14 183.831 134.73 183.831H134.175V187.201L134.73 187.198ZM144.21 189.186L145.646 188.35C145.806 188.675 146.055 188.949 146.363 189.139C146.671 189.33 147.027 189.429 147.388 189.425C148.12 189.425 148.586 189.059 148.586 188.553C148.586 187.945 148.106 187.731 147.302 187.376L146.862 187.188C145.589 186.645 144.744 185.961 144.744 184.512C144.747 184.183 144.817 183.859 144.951 183.559C145.085 183.26 145.28 182.991 145.523 182.771C145.766 182.551 146.052 182.385 146.363 182.281C146.674 182.178 147.002 182.141 147.328 182.173C147.839 182.136 148.349 182.25 148.796 182.502C149.242 182.754 149.605 183.132 149.839 183.589L148.464 184.476C148.373 184.249 148.216 184.055 148.014 183.919C147.811 183.783 147.572 183.713 147.328 183.716C147.222 183.705 147.115 183.717 147.013 183.75C146.912 183.784 146.818 183.838 146.739 183.909C146.66 183.981 146.596 184.068 146.552 184.166C146.508 184.263 146.485 184.369 146.484 184.476C146.484 185.009 146.812 185.223 147.57 185.552L148.011 185.74C149.511 186.387 150.355 187.043 150.355 188.524C150.355 190.12 149.107 190.993 147.43 190.993C146.777 191.035 146.126 190.886 145.556 190.565C144.986 190.244 144.52 189.764 144.215 189.183L144.21 189.186ZM152.734 182.278H158.411V183.835H154.498V186.569H157.94V188.086H154.498V189.327H158.585V190.887H152.734V182.278ZM161.27 182.278H163.037V190.883H161.27V182.278ZM167.813 183.834H165.367V182.278H172.028V183.835H169.578V190.887H167.813V183.834ZM179.162 183.859H177.625V182.273H180.94V190.886H179.163L179.162 183.859ZM183.308 188.136C183.311 187.63 183.472 187.138 183.769 186.729C184.065 186.32 184.482 186.015 184.96 185.856C184.686 185.694 184.46 185.461 184.305 185.183C184.149 184.904 184.071 184.589 184.076 184.27C184.193 183.678 184.511 183.145 184.975 182.762C185.44 182.379 186.022 182.17 186.623 182.17C187.224 182.17 187.807 182.379 188.272 182.762C188.736 183.145 189.054 183.678 189.17 184.27C189.176 184.591 189.097 184.907 188.939 185.186C188.782 185.465 188.553 185.696 188.276 185.856C188.752 186.017 189.167 186.323 189.463 186.731C189.759 187.14 189.92 187.631 189.925 188.136C189.925 189.794 188.654 190.995 186.623 190.995C184.593 190.995 183.308 189.793 183.308 188.136V188.136ZM188.124 188.059C188.153 187.755 188.089 187.45 187.942 187.183C187.795 186.915 187.571 186.699 187.299 186.562C187.027 186.426 186.72 186.375 186.418 186.416C186.117 186.458 185.835 186.59 185.61 186.795C185.385 187 185.227 187.269 185.157 187.566C185.087 187.864 185.108 188.175 185.218 188.46C185.327 188.745 185.52 188.989 185.771 189.162C186.022 189.335 186.319 189.427 186.623 189.427C186.813 189.446 187.005 189.425 187.187 189.365C187.368 189.305 187.535 189.207 187.676 189.078C187.818 188.949 187.931 188.792 188.008 188.616C188.085 188.441 188.124 188.251 188.124 188.059V188.059ZM187.416 184.443C187.394 184.247 187.3 184.067 187.154 183.937C187.008 183.806 186.819 183.734 186.623 183.734C186.427 183.734 186.238 183.806 186.092 183.937C185.945 184.067 185.852 184.247 185.829 184.443C185.85 184.639 185.943 184.821 186.089 184.954C186.236 185.086 186.426 185.159 186.623 185.159C186.82 185.159 187.01 185.086 187.157 184.954C187.303 184.821 187.396 184.639 187.416 184.443V184.443ZM191.844 188.136C191.847 187.63 192.009 187.138 192.305 186.729C192.601 186.32 193.018 186.015 193.496 185.856C193.222 185.694 192.996 185.461 192.841 185.183C192.686 184.904 192.607 184.589 192.612 184.27C192.729 183.678 193.047 183.145 193.511 182.762C193.976 182.379 194.558 182.17 195.16 182.17C195.761 182.17 196.343 182.379 196.808 182.762C197.272 183.145 197.59 183.678 197.707 184.27C197.713 184.591 197.633 184.907 197.475 185.186C197.318 185.465 197.089 185.696 196.812 185.856C197.289 186.017 197.704 186.323 197.999 186.731C198.295 187.14 198.456 187.631 198.461 188.136C198.461 189.794 197.19 190.995 195.16 190.995C193.129 190.995 191.844 189.793 191.844 188.136V188.136ZM196.66 188.059C196.689 187.755 196.626 187.45 196.478 187.183C196.331 186.915 196.107 186.699 195.835 186.562C195.563 186.426 195.256 186.375 194.954 186.416C194.653 186.458 194.371 186.59 194.146 186.795C193.921 187 193.763 187.269 193.693 187.566C193.623 187.864 193.644 188.175 193.754 188.46C193.863 188.745 194.056 188.989 194.307 189.162C194.558 189.335 194.855 189.427 195.16 189.427C195.35 189.446 195.542 189.425 195.723 189.365C195.904 189.305 196.071 189.207 196.213 189.078C196.354 188.949 196.467 188.792 196.544 188.616C196.621 188.441 196.66 188.251 196.66 188.059V188.059ZM195.953 184.443C195.93 184.247 195.836 184.067 195.69 183.937C195.544 183.806 195.355 183.734 195.159 183.734C194.963 183.734 194.774 183.806 194.628 183.937C194.482 184.067 194.388 184.247 194.365 184.443C194.386 184.639 194.479 184.821 194.625 184.954C194.772 185.086 194.962 185.159 195.159 185.159C195.356 185.159 195.546 185.086 195.693 184.954C195.839 184.821 195.932 184.639 195.953 184.443V184.443ZM200.433 186.579C200.474 185.758 200.754 184.966 201.239 184.303C201.724 183.639 202.392 183.133 203.161 182.847C203.93 182.561 204.765 182.508 205.564 182.694C206.363 182.88 207.09 183.296 207.655 183.893C208.22 184.489 208.598 185.238 208.743 186.048C208.887 186.858 208.792 187.693 208.469 188.449C208.145 189.205 207.608 189.85 206.924 190.302C206.239 190.755 205.437 190.996 204.617 190.996C204.051 190.991 203.491 190.871 202.972 190.645C202.452 190.418 201.983 190.089 201.593 189.677C201.203 189.265 200.899 188.779 200.699 188.246C200.5 187.714 200.409 187.147 200.433 186.579V186.579ZM206.963 186.579C206.963 184.885 206.018 183.771 204.618 183.771C203.219 183.771 202.273 184.886 202.273 186.579C202.273 188.273 203.219 189.388 204.618 189.388C206.018 189.388 206.963 188.273 206.963 186.579Z" fill="#161615"/><defs><linearGradient id="paint0_linear_12_38" x1="93.862" y1="-9.68" x2="171.046" y2="99.9423" gradientUnits="userSpaceOnUse"><stop stop-color="#BE9F58"/><stop offset="0.631" stop-color="#E6CE97"/><stop offset="1" stop-color="#BE9F58"/></linearGradient></defs></svg>
