<?xml version="1.0" encoding="UTF-8" standalone="no"?>
<!-- Created with Inkscape (http://www.inkscape.org/) -->
<svg
   xmlns:svg="http://www.w3.org/2000/svg"
   xmlns="http://www.w3.org/2000/svg"
   version="1.0"
   width="500"
   height="133"
   id="svg2">
  <defs
     id="defs4">
    <clipPath
       id="clipPath2552">
      <path
         d="M 27,887 L 640,887 L 640,27 L 27,27 L 27,887 z"
         id="path2554" />
    </clipPath>
    <clipPath
       id="clipPath2544">
      <path
         d="M -567.504,27.606 L -567.504,886.504 L 36.276,886.504 L 36.276,27.606"
         id="path2546" />
    </clipPath>
    <clipPath
       id="clipPath2534">
      <path
         d="M 0.015,914 L 667,914 L 667,0 L 0.015,0 L 0.015,914 z"
         id="path2536" />
    </clipPath>
    <clipPath
       id="clipPath2526">
      <path
         d="M 27,887 L 640,887 L 640,27 L 27,27 L 27,887 z"
         id="path2528" />
    </clipPath>
    <clipPath
       id="clipPath2514">
      <path
         d="M 37.697,410.279 L 635.807,410.279 L 635.807,29.024 L 37.697,29.024 L 37.697,410.279 z"
         id="path2516" />
    </clipPath>
    <clipPath
       id="clipPath2468">
      <path
         d="M 0.015,914 L 667,914 L 667,0 L 0.015,0 L 0.015,914 z"
         id="path2470" />
    </clipPath>
    <clipPath
       id="clipPath2460">
      <path
         d="M 27,887 L 640,887 L 640,27 L 27,27 L 27,887 z"
         id="path2462" />
    </clipPath>
  </defs>
  <g
     transform="translate(223.68144,-67.469654)"
     id="layer1">
    <g
       transform="matrix(2.523394,0,0,2.523394,350.75494,-264.91956)"
       id="g2774">
      <g
         transform="translate(-112.21357,106.05891)"
         id="g2757">
        <path
           d="M 43.63589,30.9586 L 78.75214,30.9586 L 78.75214,51.99735 C 78.75214,56.14485 77.34089,63.4061 67.51089,68.7386 C 63.33089,71.0061 61.19214,72.96235 61.19214,72.96235 C 61.19214,72.96235 59.06839,70.97985 54.89714,68.7386 C 44.97214,63.4061 43.63589,56.14485 43.63589,51.99735 L 43.63589,30.9586"
           id="path2486"
           style="fill:#231f20;fill-opacity:1;fill-rule:nonzero;stroke:none" />
        <path
           d="M 54.50714,47.8861 C 54.50714,47.8861 50.99464,46.3786 50.35839,46.43985 C 49.98714,46.4786 49.90589,46.64485 49.72214,46.90485 C 49.53589,47.16485 48.56589,48.6261 47.70964,49.82235 C 47.57339,50.0161 47.71339,51.2086 47.90589,51.2386 C 48.32089,51.30485 48.22964,51.2711 48.70214,50.5986 C 48.96214,50.2286 48.43714,50.1086 48.88589,49.4786 C 49.25714,48.9611 49.16839,49.0336 50.40714,47.5711 C 50.60714,47.3311 52.11589,48.2036 52.95089,49.05235 C 53.52464,49.63735 52.09339,49.69235 51.29464,49.75735 C 51.06339,49.77485 50.06964,50.60985 48.16464,52.02485 C 47.76464,52.3211 47.67339,53.0961 47.70089,54.14735 C 47.70964,54.4886 47.88964,54.7586 48.34089,54.4236 C 48.65839,54.18985 49.02589,53.83235 48.98964,53.6436 C 48.95089,53.46235 48.92839,53.5186 48.77464,53.45235 C 48.69339,53.41485 48.66589,53.0161 48.80339,52.86735 C 49.14589,52.50485 51.14714,50.9661 51.71214,50.8586 C 52.86839,50.63485 53.74714,51.0811 55.85964,52.3311 C 56.06464,52.4511 56.43089,52.2661 56.59964,52.1461 C 57.04464,51.8311 57.43464,51.3786 57.63964,51.99735 C 57.80589,52.5061 60.16714,53.44235 63.84089,53.21235 C 66.38964,53.04985 64.86214,52.5536 66.08464,53.9236 C 67.30589,55.29485 70.51964,55.85735 69.11839,60.29485 C 69.06589,60.45735 68.96464,60.4636 68.75589,60.6261 C 68.58214,60.75735 68.72214,61.3211 68.74839,61.48985 C 68.79339,61.79985 68.99214,61.96485 69.89839,61.4411 C 70.13839,61.30485 69.98214,60.11235 70.10964,60.03485 C 70.40714,59.8586 70.42339,58.21235 70.35964,57.67235 C 70.33464,57.4411 70.13839,56.4236 70.15839,56.36735 C 70.25464,56.0711 70.57464,56.30485 70.98964,56.8211 C 71.21964,57.10735 72.45214,58.40485 72.34214,59.6636 C 72.23089,60.92485 72.42964,60.8511 71.89589,61.1836 C 71.82464,61.22985 71.75964,62.0911 71.92464,62.13735 C 72.28964,62.23735 72.89589,62.1461 73.08214,62.0361 C 73.26839,61.9236 73.15464,61.43235 73.13214,61.09985 C 73.10089,60.73985 73.11089,60.3136 73.19214,60.3136 C 73.45964,60.3136 73.46964,59.2586 73.19214,58.81235 C 72.94464,58.40485 72.39964,57.31485 72.15589,56.24735 C 71.97964,55.4786 72.03589,55.19235 70.93464,54.7936 C 70.40964,54.60485 68.80964,52.68735 69.55714,50.7836 C 70.10964,49.36735 69.69589,49.24735 69.64714,49.15485 C 69.57339,49.01735 69.64714,48.74735 69.98714,48.46985 C 70.42089,48.11985 71.95714,48.1136 71.85964,48.88735 C 71.85089,48.9611 72.31589,50.19235 72.41589,50.7386 C 72.47089,51.03735 72.20214,51.96985 72.91589,51.99735 C 73.89339,52.03485 73.71214,52.4786 74.26839,52.8861 C 74.36214,52.95485 74.59964,53.02985 74.52839,52.5536 C 74.45339,52.0611 73.91589,51.0861 73.56339,49.44235 C 73.32339,48.3211 73.19214,48.14485 73.00839,46.88485 C 72.92714,46.3111 71.76589,45.94985 71.23089,46.51485 C 70.57714,47.2036 70.02714,48.6461 69.17589,47.9411 C 68.32214,47.23735 67.37839,46.66485 64.37714,46.92485 C 62.62464,47.0736 61.15464,46.3886 61.00839,45.77485 C 60.96339,45.57985 61.20339,45.6361 61.19214,45.4786 C 61.18339,45.3461 61.30339,43.3861 61.37839,42.32985 C 61.43714,41.50485 60.93464,38.68485 59.41589,37.4411 C 59.31089,37.35735 59.39714,37.20985 59.41589,36.9236 C 59.42589,36.77485 58.85964,36.83735 58.78589,37.43235 C 58.77714,37.50485 58.08089,37.25485 57.58089,38.2011 C 57.58089,38.2011 57.28714,38.1561 57.11839,38.6636 C 57.08964,38.7461 56.80214,38.5161 56.64714,38.79235 C 56.47839,39.0911 55.45839,39.5811 54.97214,40.07235 C 54.90589,40.1361 54.58214,40.0736 54.54589,40.37735 C 54.49714,40.7561 54.34089,40.6911 54.37714,41.1086 C 54.38714,41.2086 54.50714,41.1636 54.51589,41.2836 C 54.54589,41.71985 54.74339,41.95985 55.22839,41.95985 C 55.31714,41.95985 55.43089,41.7836 55.56839,41.6486 C 55.72214,41.4961 55.84214,41.75485 55.86839,41.7461 L 56.17339,41.46985 C 56.17339,41.46985 57.40839,41.6286 57.63964,41.5436 C 57.70964,41.51485 57.65964,42.1011 57.37839,42.69985 C 56.43339,44.70985 54.38714,46.08985 54.50714,47.8861"
           id="path2488"
           style="fill:#ffffff;fill-opacity:1;fill-rule:nonzero;stroke:none" />
        <path
           d="M 43.63589,30.9586 L 78.75214,30.9586 L 78.75214,51.99735 C 78.75214,56.14485 77.34089,63.4061 67.51089,68.7386 C 63.33089,71.0061 61.19214,72.96235 61.19214,72.96235 C 61.19214,72.96235 59.06839,70.97985 54.89714,68.7386 C 44.97214,63.4061 43.63589,56.14485 43.63589,51.99735 L 43.63589,30.9586"
           id="path2490"
           style="fill:#ed1c24;fill-opacity:1;fill-rule:nonzero;stroke:none" />
        <path
           d="M 54.50714,47.8861 C 54.50714,47.8861 50.99464,46.3786 50.35839,46.43985 C 49.98714,46.4786 49.90589,46.64485 49.72214,46.90485 C 49.53589,47.16485 48.56589,48.6261 47.70964,49.82235 C 47.57339,50.0161 47.71339,51.2086 47.90589,51.2386 C 48.32089,51.30485 48.22964,51.2711 48.70214,50.5986 C 48.96214,50.2286 48.43714,50.1086 48.88589,49.4786 C 49.25714,48.9611 49.16839,49.0336 50.40714,47.5711 C 50.60714,47.3311 52.11589,48.2036 52.95089,49.05235 C 53.52464,49.63735 52.09339,49.69235 51.29464,49.75735 C 51.06339,49.77485 50.06964,50.60985 48.16464,52.02485 C 47.76464,52.3211 47.67339,53.0961 47.70089,54.14735 C 47.70964,54.4886 47.88964,54.7586 48.34089,54.4236 C 48.65839,54.18985 49.02589,53.83235 48.98964,53.6436 C 48.95089,53.46235 48.92839,53.5186 48.77464,53.45235 C 48.69339,53.41485 48.66589,53.0161 48.80339,52.86735 C 49.14589,52.50485 51.14714,50.9661 51.71214,50.8586 C 52.86839,50.63485 53.74714,51.0811 55.85964,52.3311 C 56.06464,52.4511 56.43089,52.2661 56.59964,52.1461 C 57.04464,51.8311 57.43464,51.3786 57.63964,51.99735 C 57.80589,52.5061 60.16714,53.44235 63.84089,53.21235 C 66.38964,53.04985 64.86214,52.5536 66.08464,53.9236 C 67.30589,55.29485 70.51964,55.85735 69.11839,60.29485 C 69.06589,60.45735 68.96464,60.4636 68.75589,60.6261 C 68.58214,60.75735 68.72214,61.3211 68.74839,61.48985 C 68.79339,61.79985 68.99214,61.96485 69.89839,61.4411 C 70.13839,61.30485 69.98214,60.11235 70.10964,60.03485 C 70.40714,59.8586 70.42339,58.21235 70.35964,57.67235 C 70.33464,57.4411 70.13839,56.4236 70.15839,56.36735 C 70.25464,56.0711 70.57464,56.30485 70.98964,56.8211 C 71.21964,57.10735 72.45214,58.40485 72.34214,59.6636 C 72.23089,60.92485 72.42964,60.8511 71.89589,61.1836 C 71.82464,61.22985 71.75964,62.0911 71.92464,62.13735 C 72.28964,62.23735 72.89589,62.1461 73.08214,62.0361 C 73.26839,61.9236 73.15464,61.43235 73.13214,61.09985 C 73.10089,60.73985 73.11089,60.3136 73.19214,60.3136 C 73.45964,60.3136 73.46964,59.2586 73.19214,58.81235 C 72.94464,58.40485 72.39964,57.31485 72.15589,56.24735 C 71.97964,55.4786 72.03589,55.19235 70.93464,54.7936 C 70.40964,54.60485 68.80964,52.68735 69.55714,50.7836 C 70.10964,49.36735 69.69589,49.24735 69.64714,49.15485 C 69.57339,49.01735 69.64714,48.74735 69.98714,48.46985 C 70.42089,48.11985 71.95714,48.1136 71.85964,48.88735 C 71.85089,48.9611 72.31589,50.19235 72.41589,50.7386 C 72.47089,51.03735 72.20214,51.96985 72.91589,51.99735 C 73.89339,52.03485 73.71214,52.4786 74.26839,52.8861 C 74.36214,52.95485 74.59964,53.02985 74.52839,52.5536 C 74.45339,52.0611 73.91589,51.0861 73.56339,49.44235 C 73.32339,48.3211 73.19214,48.14485 73.00839,46.88485 C 72.92714,46.3111 71.76589,45.94985 71.23089,46.51485 C 70.57714,47.2036 70.02714,48.6461 69.17589,47.9411 C 68.32214,47.23735 67.37839,46.66485 64.37714,46.92485 C 62.62464,47.0736 61.15464,46.3886 61.00839,45.77485 C 60.96339,45.57985 61.20339,45.6361 61.19214,45.4786 C 61.18339,45.3461 61.30339,43.3861 61.37839,42.32985 C 61.43714,41.50485 60.93464,38.68485 59.41589,37.4411 C 59.31089,37.35735 59.39714,37.20985 59.41589,36.9236 C 59.42589,36.77485 58.85964,36.83735 58.78589,37.43235 C 58.77714,37.50485 58.08089,37.25485 57.58089,38.2011 C 57.58089,38.2011 57.28714,38.1561 57.11839,38.6636 C 57.08964,38.7461 56.80214,38.5161 56.64714,38.79235 C 56.47839,39.0911 55.45839,39.5811 54.97214,40.07235 C 54.90589,40.1361 54.58214,40.0736 54.54589,40.37735 C 54.49714,40.7561 54.34089,40.6911 54.37714,41.1086 C 54.38714,41.2086 54.50714,41.1636 54.51589,41.2836 C 54.54589,41.71985 54.74339,41.95985 55.22839,41.95985 C 55.31714,41.95985 55.43089,41.7836 55.56839,41.6486 C 55.72214,41.4961 55.84214,41.75485 55.86839,41.7461 L 56.17339,41.46985 C 56.17339,41.46985 57.40839,41.6286 57.63964,41.5436 C 57.70964,41.51485 57.65964,42.1011 57.37839,42.69985 C 56.43339,44.70985 54.38714,46.08985 54.50714,47.8861"
           id="path2492"
           style="fill:#ffffff;fill-opacity:1;fill-rule:nonzero;stroke:none" />
        <path
           d="M -78.07036,30.9011 L -65.13036,30.9011 L -80.32661,72.61985 L -96.73411,72.61985 L -111.46786,30.9011 L -97.54286,30.9011 L -88.12286,61.1211 L -88.00911,61.1211 L -78.07036,30.9011"
           id="path2494"
           style="fill:#2056ae;fill-opacity:1;fill-rule:nonzero;stroke:none" />
        <path
           d="M -30.49161,56.55485 L -38.19911,56.55485 L -38.19911,50.00735 L -18.59036,50.00735 L -18.59036,72.0886 C -28.23036,73.5161 -30.07661,74.40735 -40.43036,74.40735 C -53.82411,73.99235 -61.97661,65.48235 -61.97661,52.03235 C -61.97661,38.58235 -53.81911,30.1286 -40.43036,29.65485 C -26.96911,29.17735 -21.31661,35.12985 -18.88661,38.3436 L -30.93661,44.8911 C -33.07161,40.03985 -35.74911,38.10485 -38.58536,37.9861 C -46.61286,37.6511 -49.47661,45.06985 -49.47661,52.03235 C -49.47661,60.48235 -45.25161,66.07735 -36.68036,66.07735 C -34.47786,66.07735 -32.27911,65.7211 -30.49161,65.36235 L -30.49161,56.55485"
           id="path2496"
           style="fill:#2056ae;fill-opacity:1;fill-rule:nonzero;stroke:none" />
        <path
           d="M -7.81411,72.61985 L -7.81411,30.9011 L 4.95464,30.9011 L 4.95464,47.4286 L 16.80214,47.4286 L 16.80214,30.9011 L 29.51214,30.9011 L 29.51214,72.61985 L 16.80214,72.61985 L 16.80214,56.0936 L 4.89839,56.0936 L 4.89839,72.61985 L -7.81411,72.61985"
           id="path2498"
           style="fill:#2056ae;fill-opacity:1;fill-rule:nonzero;stroke:none" />
      </g>
    </g>
  </g>
</svg>
