<?xml version="1.0" encoding="UTF-8"?>
<svg id="Ebene_1" xmlns="http://www.w3.org/2000/svg" version="1.1" viewBox="0 0 133 120">
  <!-- Generator: Adobe Illustrator 30.2.1, SVG Export Plug-In . SVG Version: 2.1.1 Build 1)  -->
  <defs>
    <style>
      .st0 {
        fill: #706f6f;
        fill-rule: evenodd;
      }
    </style>
  </defs>
  <path class="st0" d="M102,66.3h-3.4v5.7h-6.9v-24c.9,0,6.3,0,9.2,0,7.3,0,11.5,2.6,11.5,9.1s-3.7,9.1-10.3,9.1ZM99.8,52.6c-.4,0-.7,0-1.1,0v9.1h1.1c3.7,0,5.7-1.6,5.7-4.6s-1.5-4.6-5.7-4.6ZM79.1,48h6.9v24h-6.9v-24ZM63.1,72v-24h6.9v19.4h6.9l-1.1,4.6h-12.6ZM50.4,48h6.9v24h-6.9v-24ZM37.8,61.7h-6.9v10.3h-6.9v-24h6.9v9.1h6.9v-9.1h6.9v24h-6.9v-10.3ZM10.3,66.3h-3.4v5.7H0v-24c.9,0,6.3,0,9.2,0,7.3,0,11.5,2.6,11.5,9.1s-3.7,9.1-10.3,9.1ZM124.6,48c3.1,0,5.5.6,7.2,1.1v4.6c-1.7-.7-4.1-1.2-6.4-1.2s-3.9,0-3.9,1.8,2.5,2.8,5.2,3.7l.6.2c2.9,1,5.7,2.3,5.7,6.2,0,5.8-4.5,7.7-10.6,7.7s-5.6-.4-7.8-1.1v-4.6c2.2,1.1,5.1,1.1,7.5,1.1s4-.8,4-2.3c0-3.8-11.4-2.1-11.4-10.2s4-6.9,9.9-6.9ZM6.9,52.6c.4,0,.8,0,1.1,0,4.3,0,5.7,1.7,5.7,4.6s-2,4.6-5.7,4.6h-1.1v-9.1Z"/>
</svg>