<svg xmlns="http://www.w3.org/2000/svg" width="1770" height="760" viewBox="0 0 1770 760">
  <rect width="100%" height="100%" fill="#FFFFFF"/>
  <g transform="translate(113,220)">
    <path d="M 594.00 83.00 L 577.00 113.00 L 566.00 148.00 L 562.00 174.00 L 562.00 213.00 L 566.00 239.00 L 573.00 263.00 L 586.00 291.00 L 595.00 305.00 L 598.00 307.00 L 617.00 301.00 L 635.00 292.00 L 652.00 280.00 L 664.00 268.00 L 664.00 266.00 L 657.00 258.00 L 648.00 242.00 L 641.00 222.00 L 638.00 205.00 L 638.00 179.00 L 642.00 159.00 L 653.00 134.00 L 663.00 119.00 L 647.00 105.00 L 635.00 97.00 L 615.00 88.00 Z M 1092.00 5.00 L 1262.00 245.00 L 1262.00 383.00 L 1338.00 383.00 L 1338.00 244.00 L 1508.00 4.00 L 1416.00 4.00 L 1300.00 173.00 L 1184.00 4.00 Z M 688.00 373.00 L 710.00 379.00 L 736.00 383.00 L 870.00 383.00 L 1014.00 85.00 L 1019.00 93.00 L 1091.00 244.00 L 1061.00 246.00 L 996.00 246.00 L 962.00 316.00 L 1124.00 316.00 L 1157.00 383.00 L 1244.00 382.00 L 1060.00 4.00 L 969.00 4.00 L 821.00 307.00 L 819.00 309.00 L 780.00 308.00 L 754.00 335.00 L 740.00 346.00 L 721.00 358.00 Z M 691.00 13.00 L 703.00 17.00 L 721.00 26.00 L 740.00 38.00 L 762.00 56.00 L 781.00 78.00 L 896.00 78.00 L 934.00 4.00 L 740.00 4.00 L 710.00 8.00 Z" fill="#000000" fill-rule="evenodd"/>
    <path d="M 50.00 7.00 L 50.00 82.00 L 252.00 84.00 L 150.00 167.00 L 150.00 217.00 L 247.00 217.00 L 266.00 221.00 L 283.00 230.00 L 294.00 243.00 L 299.00 259.00 L 299.00 274.00 L 295.00 288.00 L 290.00 296.00 L 284.00 302.00 L 265.00 312.00 L 246.00 317.00 L 47.00 318.00 L 2.00 394.00 L 263.00 393.00 L 287.00 389.00 L 315.00 380.00 L 336.00 369.00 L 350.00 358.00 L 361.00 346.00 L 370.00 332.00 L 377.00 316.00 L 382.00 296.00 L 384.00 275.00 L 383.00 251.00 L 380.00 235.00 L 373.00 216.00 L 358.00 194.00 L 346.00 183.00 L 334.00 175.00 L 314.00 166.00 L 296.00 161.00 L 256.00 157.00 L 294.00 122.00 L 354.00 75.00 L 354.00 7.00 Z M 390.00 2.00 L 390.00 72.00 L 359.00 96.00 L 359.00 166.00 L 371.00 172.00 L 386.00 183.00 L 396.00 193.00 L 407.00 209.00 L 414.00 225.00 L 418.00 241.00 L 420.00 262.00 L 419.00 284.00 L 415.00 306.00 L 404.00 332.00 L 395.00 345.00 L 381.00 359.00 L 372.00 366.00 L 359.00 373.00 L 359.00 389.00 L 549.00 389.00 L 590.00 388.00 L 611.00 385.00 L 654.00 373.00 L 683.00 359.00 L 707.00 343.00 L 734.00 317.00 L 751.00 293.00 L 762.00 271.00 L 769.00 251.00 L 776.00 216.00 L 777.00 187.00 L 772.00 149.00 L 762.00 118.00 L 752.00 98.00 L 743.00 84.00 L 720.00 58.00 L 691.00 36.00 L 663.00 21.00 L 635.00 11.00 L 613.00 6.00 L 583.00 2.00 Z M 441.00 78.00 L 578.00 78.00 L 606.00 84.00 L 625.00 91.00 L 635.00 96.00 L 658.00 113.00 L 675.00 132.00 L 685.00 151.00 L 691.00 171.00 L 693.00 185.00 L 692.00 212.00 L 688.00 229.00 L 680.00 248.00 L 667.00 267.00 L 652.00 281.00 L 635.00 293.00 L 617.00 302.00 L 596.00 309.00 L 576.00 312.00 L 442.00 313.00 Z" fill="#B8181C" fill-rule="evenodd"/>
  </g>
</svg>
