<?xml version="1.0" encoding="UTF-8"?>
<svg id="Ebene_2" data-name="Ebene 2" xmlns="http://www.w3.org/2000/svg" viewBox="0 0 285.87 75.05">
  <defs>
    <style>
      .cls-1 { fill: #919191; }
      .cls-2 { fill: #919191; }
    </style>
  </defs>
  <g id="Ebene_1-2" data-name="Ebene 1">
    <polygon class="cls-2" points="189.85 46.56 208.04 46.41 193.31 15.59 165.62 73.04 148.91 72.98 159.58 51 184.58 .05 202.13 .02 237.54 72.86 220.69 72.98 214.53 60.08 183.23 60.02 189.85 46.56"/>
    <polygon class="cls-2" points="272.14 19.44 253.12 46.34 253.12 73.02 238.39 73.02 238.37 46.41 217.77 17.34 205.53 .2 223.4 .1 245.74 32.73 268.1 .11 285.87 .19 272.14 19.44"/>
    <g>
      <path class="cls-2" d="M129.34,19.06c-.62-.42-1.25-.83-1.89-1.22-4.22-2.25-8.56-3.08-13.22-3.43h-1.16c-3.1,4.18-5.39,9.3-6.37,15.4-1.7,10.58.65,21.23,6.58,28.95.02.03.04.05.06.08h1.36c5.38-.04,10.54-1.71,14.96-4.89-2.95-2.14-5.45-5.05-7-8.85-2.67-6.54-2.28-14.01,1.17-19.87,1.47-2.51,3.38-4.55,5.52-6.16Z"/>
      <path class="cls-2" d="M142.16,0c-4.45.35-8.57.85-12.79,2.4,1.64.53,3.26,1.16,4.89,1.93,4.84,2.42,9.32,5.61,12.87,10.04l23.43-.08L177.89.07l-35.72-.07Z"/>
      <path class="cls-2" d="M131.65,70.29c-.54.19-1.08.37-1.61.54,3.81,1.3,7.79,1.99,11.81,2.19h19.05s7.22-14.41,7.22-14.41l-20.7-.07c-4.26,5.6-9.77,9.21-15.76,11.74Z"/>
    </g>
    <path class="cls-1" d="M142.92,20.04c-3.82-7.21-9.69-11.88-16.22-15.14-6.1-2.89-12.24-3.96-18.9-4.33l-34.22.41v12.9c-1.98,1.44-3.89,2.89-5.77,4.37v13.71c6.51,2.94,11.28,8.73,11.34,18.45.08,10.84-4.68,17.09-11.35,20.5v3.14s40.32-.03,40.32-.03c5.62,0,10.73-1.32,15.98-3.15,7.08-2.99,13.49-7.47,17.96-14.98,6.34-10.66,6.62-24.97.87-35.85ZM124.19,52.87c-4.84,4.27-10.79,6.5-17.04,6.53l-23.75.14V14.99s23.28,0,23.28,0c4.66.34,8.99,1.17,13.22,3.43,3.39,2.04,6.48,4.47,8.63,8.46,4.73,8.78,2.65,19.84-4.33,26Z"/>
    <path class="cls-1" d="M43.63,60.51c3.19,0,6.08-.86,8.67-2.19,2.82-1.44,4.24-4.45,4.08-7.94-.36-7.72-7.66-8.96-12.97-8.96h-15.35s-.02-9.37-.02-9.37l6.6-5.51,12.98-10.45-38.47-.12V1.57s57.8.04,57.8.04v12.9c-6.69,4.87-12.73,9.9-18.77,15.66,12.04-.2,24.25,5.31,24.34,20.87.13,17.93-12.95,23.32-26.06,24.01H0s8.67-14.52,8.67-14.52l34.96-.02Z"/>
    <path class="cls-1" d="M43.63,60.51c3.19,0,6.08-.86,8.67-2.19,2.82-1.44,4.24-4.45,4.08-7.94-.36-7.72-7.66-8.96-12.97-8.96h-15.35s-.02-9.37-.02-9.37l6.6-5.51,12.98-10.45-38.47-.12V1.57s57.8.04,57.8.04v12.9c-6.69,4.87-12.73,9.9-18.77,15.66,12.04-.2,24.25,5.31,24.34,20.87.13,17.93-12.95,23.32-26.06,24.01H0s8.67-14.52,8.67-14.52l34.96-.02Z"/>
  </g>
</svg>
